<?xml version="1.0" encoding="UTF-8" standalone="no"?>
<!DOCTYPE svg PUBLIC "-//W3C//DTD SVG 1.1//EN" "http://www.w3.org/Graphics/SVG/1.1/DTD/svg11.dtd">
<svg width="100%" height="100%" viewBox="0 0 800 600" version="1.1" xmlns="http://www.w3.org/2000/svg" xmlns:xlink="http://www.w3.org/1999/xlink" xml:space="preserve" xmlns:serif="http://www.serif.com/" style="fill-rule:evenodd;clip-rule:evenodd;stroke-linejoin:round;stroke-miterlimit:2;">
    <g transform="matrix(888,0,0,888,110.281,545.638)">
        <path d="M0.495,-0.026C0.446,-0.008 0.409,0 0.382,0C0.292,0 0.218,-0.033 0.159,-0.101C0.115,-0.151 0.093,-0.214 0.093,-0.289C0.093,-0.364 0.121,-0.429 0.177,-0.485C0.233,-0.541 0.299,-0.568 0.375,-0.568C0.402,-0.568 0.442,-0.56 0.495,-0.542C0.449,-0.538 0.412,-0.528 0.385,-0.514C0.357,-0.5 0.33,-0.477 0.301,-0.444C0.264,-0.401 0.245,-0.346 0.245,-0.281C0.245,-0.225 0.262,-0.174 0.297,-0.128C0.321,-0.097 0.348,-0.073 0.377,-0.058C0.406,-0.043 0.446,-0.032 0.495,-0.026ZM0.39,-0.024C0.353,-0.043 0.324,-0.062 0.304,-0.081C0.283,-0.1 0.265,-0.125 0.25,-0.154C0.229,-0.195 0.218,-0.238 0.218,-0.283C0.218,-0.333 0.229,-0.378 0.252,-0.418C0.268,-0.447 0.285,-0.47 0.304,-0.488C0.323,-0.505 0.35,-0.524 0.385,-0.543C0.332,-0.539 0.29,-0.529 0.258,-0.514C0.226,-0.498 0.197,-0.474 0.171,-0.44C0.135,-0.393 0.118,-0.342 0.118,-0.286C0.118,-0.22 0.138,-0.164 0.177,-0.119C0.207,-0.086 0.237,-0.063 0.268,-0.049C0.298,-0.035 0.339,-0.027 0.39,-0.024Z" style="fill-rule:nonzero;"/>
    </g>
</svg>
