<?xml version="1.0" encoding="utf-8"?>
<!-- Generator: Adobe Illustrator 16.0.0, SVG Export Plug-In . SVG Version: 6.00 Build 0)  -->
<!DOCTYPE svg PUBLIC "-//W3C//DTD SVG 1.1//EN" "http://www.w3.org/Graphics/SVG/1.1/DTD/svg11.dtd">
<svg version="1.1" id="Layer_1" xmlns:serif="http://www.serif.com/"
	 xmlns="http://www.w3.org/2000/svg" xmlns:xlink="http://www.w3.org/1999/xlink" x="0px" y="0px" width="996px" height="216px"
	 viewBox="14.5 66.5 996 216" enable-background="new 14.5 66.5 996 216" xml:space="preserve">
<g>
	<g transform="matrix(888,0,0,888,110.281,545.638)">
		<path d="M0.063-0.341C0.048-0.336,0.037-0.333,0.029-0.333c-0.027,0-0.05-0.01-0.068-0.03c-0.013-0.015-0.02-0.034-0.02-0.056
			c0-0.022,0.009-0.042,0.026-0.058c0.017-0.017,0.037-0.025,0.06-0.025c0.008,0,0.02,0.002,0.036,0.008
			C0.049-0.494,0.038-0.491,0.03-0.486C0.021-0.482,0.013-0.475,0.004-0.466c-0.011,0.013-0.017,0.029-0.017,0.049
			c0,0.017,0.005,0.032,0.016,0.046C0.01-0.362,0.019-0.355,0.027-0.351C0.036-0.346,0.048-0.343,0.063-0.341z M0.031-0.341
			C0.02-0.346,0.011-0.352,0.005-0.357c-0.006-0.006-0.012-0.013-0.016-0.022c-0.006-0.012-0.01-0.025-0.01-0.038
			c0-0.015,0.003-0.028,0.01-0.04c0.005-0.009,0.01-0.015,0.016-0.021C0.011-0.484,0.019-0.489,0.03-0.495
			C0.014-0.494,0.001-0.491-0.009-0.486c-0.01,0.005-0.019,0.012-0.026,0.022C-0.046-0.45-0.051-0.435-0.051-0.419
			c0,0.02,0.006,0.036,0.018,0.05c0.009,0.01,0.018,0.017,0.028,0.021C0.003-0.344,0.016-0.341,0.031-0.341z"/>
	</g>
	<g>
		<path d="M240.63,130.162c5.301,0,9.657,0.783,13.072,2.35c3.413,1.566,6.446,3.394,9.097,5.482
			c1.605,1.205,2.831,1.345,3.675,0.422c0.844-0.922,1.425-3.113,1.747-6.567h2.771c-0.162,2.973-0.283,6.587-0.362,10.843
			c-0.08,4.259-0.12,9.88-0.12,16.868h-2.771c-0.563-3.452-1.084-6.205-1.566-8.253c-0.481-2.048-1.065-3.795-1.746-5.241
			c-0.684-1.446-1.587-2.892-2.712-4.338c-2.49-3.292-5.623-5.681-9.397-7.168c-3.776-1.486-7.752-2.229-11.928-2.229
			c-3.937,0-7.491,0.984-10.663,2.951c-3.174,1.97-5.903,4.801-8.193,8.494c-2.289,3.696-4.057,8.154-5.301,13.374
			c-1.246,5.223-1.868,11.084-1.868,17.591c0,6.748,0.682,12.711,2.049,17.893c1.365,5.18,3.271,9.539,5.723,13.072
			c2.449,3.536,5.341,6.206,8.676,8.013c3.332,1.807,6.927,2.71,10.783,2.71c3.614,0,7.389-0.722,11.325-2.168
			c3.935-1.446,7.027-3.774,9.277-6.987c1.766-2.33,2.991-4.859,3.675-7.591c0.682-2.729,1.305-6.545,1.867-11.445h2.771
			c0,7.31,0.04,13.192,0.12,17.65c0.079,4.458,0.2,8.214,0.362,11.266h-2.771c-0.322-3.453-0.864-5.622-1.627-6.506
			c-0.764-0.882-2.029-0.763-3.795,0.361c-2.973,2.089-6.126,3.916-9.458,5.482c-3.334,1.566-7.611,2.349-12.832,2.349
			c-7.632,0-14.318-1.726-20.061-5.18c-5.744-3.453-10.202-8.434-13.374-14.94c-3.174-6.506-4.759-14.338-4.759-23.495
			c0-8.995,1.646-16.868,4.939-23.616c3.293-6.747,7.811-12.007,13.555-15.784C226.552,132.05,233.159,130.162,240.63,130.162z"/>
		<path d="M344.004,131.849c-0.321,2.813-0.541,5.542-0.662,8.193c-0.12,2.65-0.181,4.659-0.181,6.024
			c0,1.446,0.04,2.832,0.12,4.156c0.08,1.326,0.16,2.431,0.241,3.314h-2.771c-0.481-4.738-1.165-8.494-2.048-11.266
			c-0.885-2.771-2.391-4.738-4.519-5.903c-2.129-1.164-5.322-1.748-9.578-1.748h-10c-2.732,0-4.801,0.223-6.205,0.663
			c-1.406,0.442-2.35,1.367-2.832,2.771c-0.481,1.407-0.723,3.596-0.723,6.567v59.761c0,2.892,0.241,5.061,0.723,6.506
			c0.482,1.446,1.426,2.39,2.832,2.832c1.404,0.442,3.473,0.662,6.205,0.662h8.795c5.061,0,8.896-0.681,11.507-2.047
			c2.608-1.365,4.497-3.594,5.662-6.687c1.164-3.092,2.028-7.289,2.591-12.591h2.771c-0.24,2.168-0.36,5.061-0.36,8.675
			c0,1.527,0.06,3.716,0.181,6.566c0.12,2.853,0.34,5.804,0.662,8.856c-4.097-0.16-8.717-0.26-13.855-0.302
			c-5.142-0.039-9.72-0.06-13.735-0.06c-1.768,0-4.036,0-6.808,0c-2.771,0-5.765,0.021-8.976,0.06
			c-3.214,0.042-6.467,0.081-9.76,0.121c-3.294,0.041-6.427,0.102-9.397,0.181v-2.41c2.729-0.16,4.798-0.482,6.205-0.964
			c1.404-0.481,2.35-1.445,2.831-2.891s0.723-3.614,0.723-6.506V144.62c0-2.971-0.241-5.16-0.723-6.567
			c-0.481-1.404-1.427-2.368-2.831-2.891c-1.407-0.522-3.476-0.823-6.205-0.904v-2.41c2.971,0.081,6.104,0.142,9.397,0.181
			c3.293,0.041,6.546,0.081,9.76,0.12c3.211,0.042,6.205,0.061,8.976,0.061c2.771,0,5.04,0,6.808,0
			c3.693,0,7.892-0.019,12.591-0.061C336.112,132.11,340.309,132.011,344.004,131.849z M323.281,173.054v2.411h-22.049v-2.411
			H323.281z M326.774,157.15c-0.321,4.578-0.462,8.072-0.421,10.482c0.04,2.41,0.061,4.62,0.061,6.627
			c0,2.008,0.039,4.217,0.12,6.626c0.079,2.41,0.28,5.904,0.603,10.482h-2.771c-0.321-2.57-0.704-5.079-1.145-7.53
			c-0.442-2.449-1.406-4.458-2.892-6.024c-1.487-1.566-3.997-2.349-7.53-2.349v-2.411c2.65,0,4.679-0.542,6.084-1.625
			c1.404-1.085,2.429-2.47,3.073-4.158c0.642-1.687,1.084-3.434,1.325-5.241s0.481-3.434,0.723-4.88H326.774z"/>
		<path d="M396.896,130.162c5.301,0,9.657,0.783,13.072,2.35c3.413,1.566,6.446,3.394,9.097,5.482
			c1.605,1.205,2.832,1.345,3.675,0.422c0.844-0.922,1.426-3.113,1.747-6.567h2.771c-0.162,2.973-0.283,6.587-0.362,10.843
			c-0.08,4.259-0.12,9.88-0.12,16.868h-2.771c-0.563-3.452-1.085-6.205-1.567-8.253c-0.481-2.048-1.064-3.795-1.746-5.241
			c-0.684-1.446-1.587-2.892-2.711-4.338c-2.491-3.292-5.624-5.681-9.398-7.168c-3.776-1.486-7.752-2.229-11.928-2.229
			c-3.937,0-7.491,0.984-10.663,2.951c-3.174,1.97-5.903,4.801-8.193,8.494c-2.289,3.696-4.057,8.154-5.301,13.374
			c-1.246,5.223-1.867,11.084-1.867,17.591c0,6.748,0.681,12.711,2.048,17.893c1.365,5.18,3.271,9.539,5.723,13.072
			c2.449,3.536,5.342,6.206,8.676,8.013c3.332,1.807,6.928,2.71,10.783,2.71c3.614,0,7.389-0.722,11.325-2.168
			c3.935-1.446,7.027-3.774,9.277-6.987c1.766-2.33,2.991-4.859,3.675-7.591c0.682-2.729,1.305-6.545,1.868-11.445h2.771
			c0,7.31,0.04,13.192,0.12,17.65c0.079,4.458,0.2,8.214,0.362,11.266h-2.771c-0.321-3.453-0.864-5.622-1.627-6.506
			c-0.764-0.882-2.029-0.763-3.795,0.361c-2.973,2.089-6.126,3.916-9.458,5.482c-3.334,1.566-7.611,2.349-12.831,2.349
			c-7.633,0-14.319-1.726-20.062-5.18c-5.743-3.453-10.201-8.434-13.374-14.94c-3.174-6.506-4.759-14.338-4.759-23.495
			c0-8.995,1.646-16.868,4.939-23.616c3.293-6.747,7.811-12.007,13.555-15.784C382.818,132.05,389.426,130.162,396.896,130.162z"/>
		<path d="M470.872,131.849v2.41c-2.729,0.081-4.801,0.382-6.205,0.904c-1.405,0.523-2.348,1.487-2.83,2.891
			c-0.482,1.407-0.725,3.596-0.725,6.567v59.761c0,2.892,0.242,5.061,0.725,6.506s1.425,2.41,2.83,2.891
			c1.404,0.482,3.476,0.804,6.205,0.964v2.41c-1.848-0.16-4.156-0.26-6.927-0.302c-2.771-0.039-5.563-0.06-8.374-0.06
			c-3.133,0-6.065,0.021-8.795,0.06c-2.732,0.042-4.94,0.142-6.627,0.302v-2.41c2.729-0.16,4.798-0.482,6.204-0.964
			c1.405-0.481,2.35-1.445,2.832-2.891s0.723-3.614,0.723-6.506V144.62c0-2.971-0.24-5.16-0.723-6.567
			c-0.482-1.404-1.427-2.368-2.832-2.891c-1.406-0.522-3.475-0.823-6.204-0.904v-2.41c1.687,0.081,3.895,0.162,6.627,0.241
			c2.729,0.081,5.662,0.12,8.795,0.12c2.812,0,5.603-0.039,8.374-0.12C466.716,132.011,469.024,131.93,470.872,131.849z"/>
		<path d="M511.716,131.849v2.41c-2.73,0.081-4.801,0.382-6.204,0.904c-1.406,0.523-2.35,1.487-2.832,2.891
			c-0.482,1.407-0.724,3.596-0.724,6.567v59.761c0,2.892,0.241,5.061,0.724,6.506s1.426,2.39,2.832,2.832
			c1.403,0.442,3.474,0.662,6.204,0.662h8.796c3.774,0,6.848-0.4,9.217-1.205c2.369-0.802,4.258-2.067,5.664-3.795
			c1.404-1.727,2.469-4.036,3.193-6.928c0.723-2.891,1.283-6.425,1.686-10.602h2.771c-0.24,2.491-0.361,5.783-0.361,9.879
			c0,1.527,0.061,3.716,0.182,6.566c0.119,2.853,0.34,5.804,0.662,8.856c-4.098-0.16-8.717-0.26-13.855-0.302
			c-5.143-0.039-9.722-0.06-13.737-0.06c-1.767,0-4.036,0-6.807,0s-5.765,0.021-8.977,0.06c-3.213,0.042-6.466,0.081-9.759,0.121
			c-3.295,0.041-6.427,0.102-9.397,0.181v-2.41c2.729-0.16,4.798-0.482,6.204-0.964c1.405-0.481,2.351-1.445,2.831-2.891
			c0.482-1.446,0.724-3.614,0.724-6.506V144.62c0-2.971-0.241-5.16-0.724-6.567c-0.48-1.404-1.426-2.368-2.831-2.891
			c-1.406-0.522-3.475-0.823-6.204-0.904v-2.41c1.687,0.081,3.895,0.162,6.626,0.241c2.729,0.081,5.663,0.12,8.796,0.12
			c2.811,0,5.602-0.039,8.374-0.12C507.56,132.011,509.867,131.93,511.716,131.849z"/>
		<path d="M611.959,131.849c-0.322,2.813-0.541,5.542-0.662,8.193c-0.121,2.65-0.182,4.659-0.182,6.024
			c0,1.446,0.041,2.832,0.121,4.156c0.08,1.326,0.16,2.431,0.242,3.314h-2.773c-0.48-4.738-1.164-8.494-2.047-11.266
			c-0.885-2.771-2.391-4.738-4.518-5.903c-2.131-1.164-5.322-1.748-9.58-1.748h-10c-2.73,0-4.801,0.223-6.205,0.663
			c-1.406,0.442-2.35,1.367-2.83,2.771c-0.482,1.407-0.725,3.596-0.725,6.567v59.761c0,2.892,0.242,5.061,0.725,6.506
			c0.48,1.446,1.424,2.39,2.83,2.832c1.404,0.442,3.475,0.662,6.205,0.662h8.795c5.061,0,8.896-0.681,11.508-2.047
			c2.609-1.365,4.498-3.594,5.662-6.687c1.164-3.092,2.027-7.289,2.59-12.591h2.771c-0.24,2.168-0.361,5.061-0.361,8.675
			c0,1.527,0.061,3.716,0.182,6.566c0.119,2.853,0.34,5.804,0.662,8.856c-4.098-0.16-8.717-0.26-13.855-0.302
			c-5.143-0.039-9.721-0.06-13.736-0.06c-1.768,0-4.037,0-6.807,0c-2.771,0-5.766,0.021-8.977,0.06
			c-3.213,0.042-6.467,0.081-9.76,0.121c-3.295,0.041-6.426,0.102-9.396,0.181v-2.41c2.729-0.16,4.797-0.482,6.203-0.964
			c1.406-0.481,2.352-1.445,2.832-2.891c0.482-1.446,0.723-3.614,0.723-6.506V144.62c0-2.971-0.24-5.16-0.723-6.567
			c-0.48-1.404-1.426-2.368-2.832-2.891c-1.406-0.522-3.475-0.823-6.203-0.904v-2.41c2.971,0.081,6.102,0.142,9.396,0.181
			c3.293,0.041,6.547,0.081,9.76,0.12c3.211,0.042,6.205,0.061,8.977,0.061c2.77,0,5.039,0,6.807,0c3.695,0,7.893-0.019,12.59-0.061
			C604.066,132.11,608.264,132.011,611.959,131.849z M591.234,173.054v2.411h-22.047v-2.411H591.234z M594.73,157.15
			c-0.322,4.578-0.463,8.072-0.422,10.482c0.039,2.41,0.061,4.62,0.061,6.627c0,2.008,0.039,4.217,0.119,6.626
			s0.281,5.904,0.602,10.482h-2.77c-0.322-2.57-0.705-5.079-1.145-7.53c-0.443-2.449-1.406-4.458-2.893-6.024
			c-1.486-1.566-3.996-2.349-7.529-2.349v-2.411c2.65,0,4.678-0.542,6.084-1.625c1.404-1.085,2.43-2.47,3.072-4.158
			c0.643-1.687,1.084-3.434,1.324-5.241c0.242-1.807,0.482-3.434,0.725-4.88H594.73z"/>
		<path d="M694.852,130.162c5.301,0,9.658,0.783,13.072,2.35c3.414,1.566,6.445,3.394,9.098,5.482
			c1.605,1.205,2.83,1.345,3.674,0.422c0.844-0.922,1.426-3.113,1.746-6.567h2.771c-0.16,2.973-0.281,6.587-0.361,10.843
			c-0.08,4.259-0.119,9.88-0.119,16.868h-2.771c-0.563-3.452-1.084-6.205-1.566-8.253s-1.066-3.795-1.748-5.241
			c-0.682-1.446-1.586-2.892-2.711-4.338c-2.49-3.292-5.623-5.681-9.396-7.168c-3.777-1.486-7.754-2.229-11.93-2.229
			c-3.936,0-7.49,0.984-10.662,2.951c-3.174,1.97-5.904,4.801-8.193,8.494c-2.289,3.696-4.057,8.154-5.301,13.374
			c-1.246,5.223-1.867,11.084-1.867,17.591c0,6.748,0.682,12.711,2.049,17.893c1.363,5.18,3.271,9.539,5.723,13.072
			c2.449,3.536,5.34,6.206,8.674,8.013c3.332,1.807,6.93,2.71,10.785,2.71c3.613,0,7.389-0.722,11.324-2.168
			c3.936-1.446,7.027-3.774,9.277-6.987c1.766-2.33,2.992-4.859,3.676-7.591c0.682-2.729,1.305-6.545,1.867-11.445h2.771
			c0,7.31,0.039,13.192,0.119,17.65s0.201,8.214,0.361,11.266h-2.771c-0.32-3.453-0.863-5.622-1.625-6.506
			c-0.766-0.882-2.029-0.763-3.795,0.361c-2.975,2.089-6.127,3.916-9.459,5.482c-3.334,1.566-7.611,2.349-12.832,2.349
			c-7.631,0-14.318-1.726-20.061-5.18c-5.744-3.453-10.201-8.434-13.373-14.94c-3.174-6.506-4.76-14.338-4.76-23.495
			c0-8.995,1.646-16.868,4.939-23.616c3.293-6.747,7.811-12.007,13.555-15.784C680.773,132.05,687.381,130.162,694.852,130.162z"/>
		<path d="M777.744,130.162c7.631,0,14.316,1.728,20.061,5.181c5.742,3.455,10.199,8.415,13.375,14.879
			c3.172,6.467,4.758,14.319,4.758,23.555c0,8.997-1.625,16.868-4.879,23.615c-3.254,6.748-7.771,12.009-13.555,15.784
			c-5.783,3.776-12.41,5.663-19.881,5.663c-7.631,0-14.318-1.726-20.061-5.18c-5.742-3.453-10.201-8.434-13.373-14.94
			c-3.174-6.506-4.76-14.338-4.76-23.495c0-8.995,1.646-16.868,4.939-23.616c3.295-6.747,7.811-12.007,13.555-15.784
			C763.666,132.05,770.273,130.162,777.744,130.162z M777.264,132.331c-5.223,0-9.76,1.807-13.615,5.421
			c-3.855,3.615-6.85,8.596-8.977,14.94c-2.131,6.346-3.193,13.696-3.193,22.049c0,8.515,1.184,15.925,3.555,22.229
			c2.367,6.308,5.582,11.167,9.639,14.579c4.055,3.416,8.533,5.121,13.434,5.121c5.221,0,9.76-1.807,13.615-5.421
			c3.855-3.615,6.848-8.615,8.977-15c2.127-6.385,3.191-13.715,3.191-21.988c0-8.595-1.186-16.024-3.553-22.29
			c-2.371-6.265-5.564-11.104-9.58-14.52C786.738,134.038,782.242,132.331,777.264,132.331z"/>
		<path d="M826.42,131.849c1.688,0.081,3.895,0.162,6.627,0.241c2.73,0.081,5.422,0.12,8.072,0.12c3.775,0,7.391-0.039,10.844-0.12
			c3.453-0.079,5.904-0.121,7.35-0.121c6.506,0,11.908,0.925,16.207,2.772c4.295,1.848,7.508,4.357,9.637,7.529
			c2.129,3.174,3.193,6.729,3.193,10.664c0,2.41-0.48,4.981-1.445,7.711c-0.965,2.732-2.633,5.302-5,7.711
			c-2.371,2.41-5.604,4.397-9.699,5.963c-4.098,1.567-9.277,2.35-15.543,2.35h-11.566v-2.41h10.361
			c5.703,0,10.061-0.904,13.072-2.711s5.061-4.217,6.146-7.229c1.082-3.013,1.625-6.366,1.625-10.062
			c0-6.344-1.506-11.265-4.518-14.759c-3.012-3.494-8.174-5.241-15.482-5.241c-3.695,0-6.105,0.684-7.229,2.048
			c-1.127,1.367-1.688,4.138-1.688,8.313v59.761c0,2.892,0.24,5.061,0.723,6.506s1.426,2.41,2.832,2.891
			c1.404,0.482,3.473,0.804,6.205,0.964v2.41c-1.85-0.16-4.156-0.26-6.928-0.302c-2.771-0.039-5.563-0.06-8.375-0.06
			c-3.133,0-6.064,0.021-8.795,0.06c-2.732,0.042-4.939,0.142-6.627,0.302v-2.41c2.73-0.16,4.799-0.482,6.205-0.964
			c1.404-0.481,2.35-1.445,2.832-2.891s0.723-3.614,0.723-6.506V144.62c0-2.971-0.24-5.16-0.723-6.567
			c-0.482-1.404-1.428-2.368-2.832-2.891c-1.406-0.522-3.475-0.823-6.205-0.904V131.849z M845.578,174.621
			c4.338,0.162,7.75,0.343,10.24,0.542c2.488,0.201,4.52,0.382,6.086,0.542c1.564,0.162,3.072,0.362,4.518,0.603
			c5.379,0.886,9.256,2.512,11.627,4.88c2.367,2.371,4.115,6.045,5.24,11.025l3.012,12.289c0.803,3.535,1.627,6.084,2.471,7.65
			c0.844,1.567,2.148,2.31,3.916,2.229c1.365-0.079,2.51-0.521,3.434-1.325c0.922-0.802,1.906-1.886,2.951-3.253l1.809,1.325
			c-1.688,2.491-3.436,4.398-5.242,5.723c-1.807,1.326-4.357,1.988-7.65,1.988c-2.973,0-5.584-0.885-7.832-2.65
			c-2.248-1.766-3.936-5.22-5.059-10.362l-2.652-12.049c-0.723-3.452-1.547-6.446-2.469-8.977c-0.926-2.53-2.211-4.518-3.855-5.963
			c-1.648-1.446-4.078-2.168-7.291-2.168h-13.012L845.578,174.621z"/>
		<path d="M964.617,131.849c-0.322,2.813-0.543,5.542-0.664,8.193c-0.119,2.65-0.18,4.659-0.18,6.024
			c0,1.446,0.039,2.832,0.121,4.156c0.078,1.326,0.16,2.431,0.24,3.314h-2.771c-0.482-4.738-1.164-8.494-2.049-11.266
			c-0.885-2.771-2.391-4.738-4.518-5.903c-2.129-1.164-5.322-1.748-9.578-1.748h-10.002c-2.73,0-4.801,0.223-6.203,0.663
			c-1.406,0.442-2.35,1.367-2.832,2.771c-0.482,1.407-0.723,3.596-0.723,6.567v59.761c0,2.892,0.24,5.061,0.723,6.506
			s1.426,2.39,2.832,2.832c1.402,0.442,3.473,0.662,6.203,0.662h8.797c5.061,0,8.895-0.681,11.506-2.047
			c2.609-1.365,4.498-3.594,5.662-6.687c1.164-3.092,2.029-7.289,2.592-12.591h2.771c-0.242,2.168-0.363,5.061-0.363,8.675
			c0,1.527,0.061,3.716,0.182,6.566c0.121,2.853,0.342,5.804,0.662,8.856c-4.096-0.16-8.715-0.26-13.855-0.302
			c-5.141-0.039-9.721-0.06-13.736-0.06c-1.766,0-4.035,0-6.807,0c-2.77,0-5.764,0.021-8.977,0.06
			c-3.213,0.042-6.465,0.081-9.758,0.121c-3.295,0.041-6.428,0.102-9.398,0.181v-2.41c2.73-0.16,4.799-0.482,6.205-0.964
			c1.404-0.481,2.35-1.445,2.832-2.891c0.48-1.446,0.723-3.614,0.723-6.506V144.62c0-2.971-0.242-5.16-0.723-6.567
			c-0.482-1.404-1.428-2.368-2.832-2.891c-1.406-0.522-3.475-0.823-6.205-0.904v-2.41c2.971,0.081,6.104,0.142,9.398,0.181
			c3.293,0.041,6.545,0.081,9.758,0.12c3.213,0.042,6.207,0.061,8.977,0.061c2.771,0,5.041,0,6.807,0
			c3.695,0,7.895-0.019,12.592-0.061C956.725,132.11,960.92,132.011,964.617,131.849z M943.893,173.054v2.411h-22.049v-2.411
			H943.893z M947.387,157.15c-0.32,4.578-0.463,8.072-0.422,10.482s0.061,4.62,0.061,6.627c0,2.008,0.041,4.217,0.121,6.626
			c0.078,2.41,0.281,5.904,0.602,10.482h-2.771c-0.322-2.57-0.703-5.079-1.145-7.53c-0.441-2.449-1.406-4.458-2.891-6.024
			c-1.488-1.566-3.996-2.349-7.531-2.349v-2.411c2.65,0,4.68-0.542,6.084-1.625c1.406-1.085,2.43-2.47,3.074-4.158
			c0.643-1.687,1.084-3.434,1.324-5.241s0.482-3.434,0.723-4.88H947.387z"/>
	</g>
</g>
</svg>
